<?xml version="1.0" encoding="utf-8"?>
<!-- Generator: Adobe Illustrator 16.0.0, SVG Export Plug-In . SVG Version: 6.00 Build 0)  -->
<!DOCTYPE svg PUBLIC "-//W3C//DTD SVG 1.1//EN" "http://www.w3.org/Graphics/SVG/1.1/DTD/svg11.dtd">
<svg version="1.1" id="Layer_1" xmlns="http://www.w3.org/2000/svg" xmlns:xlink="http://www.w3.org/1999/xlink" x="0px" y="0px"
	 width="300px" height="40px" viewBox="0 0 300 40" style="enable-background:new 0 0 300 40;" xml:space="preserve">
<path style="fill:#FFFFFF;" d="M44.448,20.315c0,9.026-6.474,15.39-15.427,15.39s-15.427-6.363-15.427-15.39
	c0-8.435,7.399-14.354,15.427-14.354S44.448,11.88,44.448,20.315z M21.142,20.352c0,4.809,3.551,8.324,7.879,8.324
	c4.329,0,7.879-3.515,7.879-8.324c0-3.847-3.551-7.362-7.879-7.362C24.693,12.99,21.142,16.505,21.142,20.352z"/>
<path style="fill:#FFFFFF;" d="M53.83,28.639h8.693v6.142H46.579V6.886h7.251V28.639z"/>
<path style="fill:#FFFFFF;" d="M71.995,29.934l-1.924,4.847h-7.694L73.104,6.886h7.917L91.528,34.78h-7.732l-1.813-4.847H71.995z
	 M77.063,15.506h-0.074l-2.997,8.877h6.03L77.063,15.506z"/>
<path style="fill:#FFFFFF;" d="M101.037,28.639h8.693v6.142H93.786V6.886h7.251V28.639z"/>
<path style="fill:#FFFFFF;" d="M119.35,28.639h8.694v6.142h-15.944V6.886h7.25V28.639z"/>
<path style="fill:#FFFFFF;" d="M159.859,20.315c0,9.026-6.475,15.39-15.427,15.39s-15.426-6.363-15.426-15.39
	c0-8.435,7.399-14.354,15.426-14.354C152.46,5.961,159.859,11.88,159.859,20.315z M136.553,20.352c0,4.809,3.552,8.324,7.879,8.324
	c4.328,0,7.88-3.515,7.88-8.324c0-3.847-3.552-7.362-7.88-7.362C140.104,12.99,136.553,16.505,136.553,20.352z"/>
<path style="fill:#FFFFFF;" d="M195.874,34.78h-9.026l-6.845-10.729h-0.074V34.78h-7.25V6.886h10.839
	c5.512,0,9.693,2.626,9.693,8.583c0,3.848-2.146,7.177-6.104,7.88L195.874,34.78z M179.929,19.39h0.704
	c2.367,0,5.03-0.444,5.03-3.477c0-3.034-2.663-3.478-5.03-3.478h-0.704V19.39z"/>
<path style="fill:#FFFFFF;" d="M220.411,6.886v15.686c0,3.588-0.148,7.139-2.923,9.84c-2.331,2.294-5.992,3.108-9.248,3.108
	c-3.255,0-6.918-0.814-9.249-3.108c-2.774-2.701-2.922-6.252-2.922-9.84V6.886h7.251v14.687c0,3.625,0.259,7.583,4.92,7.583
	s4.921-3.958,4.921-7.583V6.886H220.411z"/>
<path style="fill:#FFFFFF;" d="M222.543,34.78V6.886H232.9c4.958,0,8.287,1.924,8.287,7.251c0,2.516-0.813,4.55-3.071,5.697v0.074
	c3.996,0.518,5.697,3.218,5.697,7.103c0,5.846-4.993,7.77-10.099,7.77H222.543z M229.793,17.836h0.813
	c1.925,0,3.922-0.333,3.922-2.7c0-2.553-2.257-2.701-4.217-2.701h-0.519V17.836z M229.793,29.23h0.925
	c2.146,0,5.772,0.111,5.772-2.959c0-3.366-3.59-3.033-5.957-3.033h-0.74V29.23z"/>
<path style="fill:#FFFFFF;" d="M253.196,34.78h-7.251V6.886h7.251V34.78z"/>
<path style="fill:#FFFFFF;" d="M286.181,20.315c0,9.026-6.474,15.39-15.427,15.39c-8.952,0-15.427-6.363-15.427-15.39
	c0-8.435,7.399-14.354,15.427-14.354S286.181,11.88,286.181,20.315z M262.875,20.352c0,4.809,3.551,8.324,7.879,8.324
	s7.88-3.515,7.88-8.324c0-3.847-3.552-7.362-7.88-7.362S262.875,16.505,262.875,20.352z"/>
</svg>
